<svg width="146" height="200" viewBox="0 0 146 200" fill="none" xmlns="http://www.w3.org/2000/svg">
<g opacity="0.4">
<path fill-rule="evenodd" clip-rule="evenodd" d="M115.981 184.139L114.249 185.139C105.526 180.093 97.3045 177.494 90.2046 175.249C74.6463 170.33 64.4742 167.114 66.2109 143.592C70.3944 169.41 80.1054 169.393 99.6824 169.361C101.424 169.358 103.244 169.355 105.145 169.37L70.2494 108.928L71.9814 107.928L115.981 184.139Z" fill="#FDFDFD" fill-opacity="0.1"/>
<path d="M92.1192 85.4551C97.7954 88.2316 98.2904 96.6478 93.3284 104.179C88.3664 111.71 79.8014 115.772 74.1253 112.996C68.4492 110.219 67.9541 101.803 72.8615 94.1774C77.8235 86.6462 86.4431 82.6787 92.1192 85.4551Z" fill="#FDFDFD" fill-opacity="0.1"/>
</g>
</svg>
