<svg width="131" height="197" viewBox="0 0 131 197" fill="none" xmlns="http://www.w3.org/2000/svg">
<g opacity="0.4">
<path fill-rule="evenodd" clip-rule="evenodd" d="M76.1279 8.62708L74.1961 8.10944C67.0758 15.2408 59.8072 19.8794 53.5302 23.8851C39.7751 32.6631 30.7819 38.4022 38.5476 60.674C35.9064 34.6529 45.2907 32.1553 64.2091 27.1202C65.8923 26.6722 67.651 26.2041 69.4833 25.6976L51.42 93.1109L53.3519 93.6286L76.1279 8.62708Z" fill="#FDFDFD" fill-opacity="0.1"/>
<path d="M78.6204 110.124C83.3845 105.973 81.6844 97.7155 74.9423 91.7253C68.2002 85.735 58.8757 84.0281 54.1116 88.179C49.3475 92.33 51.0476 100.588 57.7614 106.683C64.5035 112.674 73.8563 114.275 78.6204 110.124Z" fill="#FDFDFD" fill-opacity="0.1"/>
</g>
</svg>
