<svg width="149" height="200" viewBox="0 0 149 200" fill="none" xmlns="http://www.w3.org/2000/svg">
<g opacity="0.4">
<path fill-rule="evenodd" clip-rule="evenodd" d="M32.4971 184.139L34.2291 185.139C42.9525 180.093 51.174 177.494 58.2739 175.249C73.8322 170.33 84.0043 167.114 82.2676 143.592C78.0841 169.41 68.3731 169.393 48.7962 169.361C47.0544 169.358 45.2345 169.355 43.3334 169.37L78.2291 108.928L76.4971 107.928L32.4971 184.139Z" fill="#FDFDFD" fill-opacity="0.1"/>
<path d="M56.3593 85.4551C50.6832 88.2316 50.1881 96.6478 55.1501 104.179C60.1121 111.71 68.6771 115.772 74.3532 112.996C80.0294 110.219 80.5244 101.803 75.617 94.1774C70.655 86.6462 62.0355 82.6787 56.3593 85.4551Z" fill="#FDFDFD" fill-opacity="0.1"/>
</g>
</svg>
