<svg width="130" height="197" viewBox="0 0 130 197" fill="none" xmlns="http://www.w3.org/2000/svg">
<path fill-rule="evenodd" clip-rule="evenodd" d="M54.3506 8.62708L56.2824 8.10944C63.4027 15.2408 70.6713 19.8794 76.9484 23.8851C90.7034 32.6631 99.6966 38.4022 91.9309 60.674C94.5721 34.6529 85.1879 32.1553 66.2694 27.1202C64.5862 26.6722 62.8276 26.2041 60.9952 25.6976L79.0585 93.1109L77.1267 93.6286L54.3506 8.62708Z" fill="#FDFDFD" fill-opacity="0.1"/>
<path d="M51.8581 110.124C47.094 105.973 48.7941 97.7155 55.5362 91.7253C62.2783 85.735 71.6028 84.0281 76.3669 88.179C81.1311 92.33 79.4309 100.588 72.7171 106.683C65.975 112.674 56.6222 114.275 51.8581 110.124Z" fill="#FDFDFD" fill-opacity="0.1"/>
</svg>
