<svg width="125" height="125" viewBox="0 0 125 125" fill="none" xmlns="http://www.w3.org/2000/svg">
<path d="M53 43H61.5145L69.378 67.2298L68.226 66.7053L78.4434 43V59.2581L67.8253 83.1207L53 43ZM78.4434 59.2581V43L87.7593 66.4431L86.4571 66.2333L93.2187 43H101.032L86.8077 83.0158L78.4434 59.2581Z" fill="#EEEEEE"/>
<path d="M68.7861 65.4059L69.378 67.2298L68.226 66.7053L68.7861 65.4059L78.4434 43L86.9724 64.4627L87.7593 66.4431L86.4571 66.2333L86.9724 64.4627L78.4434 43L68.7861 65.4059Z" fill="#EEEEEE"/>
<path d="M46.888 52.5451C45.544 51.7409 44.168 51.0766 42.76 50.5521C41.384 50.0277 40.088 49.7655 38.872 49.7655C37.368 49.7655 36.184 50.0976 35.32 50.7619C34.456 51.4262 34.024 52.4227 34.024 53.7513C34.024 54.6604 34.344 55.482 34.984 56.2162C35.656 56.9155 36.504 57.5448 37.528 58.1043C38.584 58.6637 39.672 59.1707 40.792 59.6252C41.816 60.0447 42.824 60.5517 43.816 61.1461C44.84 61.7055 45.752 62.4223 46.552 63.2964C47.352 64.1355 47.992 65.2019 48.472 66.4955C48.952 67.7542 49.192 69.3101 49.192 71.1632C49.192 73.1211 48.728 74.9392 47.8 76.6175C46.872 78.2957 45.512 79.6593 43.72 80.7082C41.928 81.7222 39.72 82.2291 37.096 82.2291C35.752 82.2291 34.376 82.0893 32.968 81.8096C31.592 81.4949 30.232 81.0404 28.888 80.446C27.544 79.8167 26.248 79.03 25 78.0859L28.072 72.1596C28.904 72.8239 29.8 73.4183 30.76 73.9428C31.752 74.4323 32.744 74.8169 33.736 75.0966C34.728 75.3763 35.64 75.5161 36.472 75.5161C37.304 75.5161 38.136 75.3938 38.968 75.149C39.832 74.8693 40.536 74.4148 41.08 73.7854C41.656 73.1561 41.944 72.282 41.944 71.1632C41.944 70.394 41.704 69.6947 41.224 69.0653C40.776 68.436 40.152 67.8591 39.352 67.3346C38.584 66.8102 37.736 66.3557 36.808 65.9711C35.72 65.5165 34.6 64.9921 33.448 64.3977C32.296 63.8033 31.208 63.0866 30.184 62.2474C29.192 61.3734 28.376 60.307 27.736 59.0483C27.128 57.7546 26.824 56.1813 26.824 54.3282C26.824 52.0905 27.272 50.1501 28.168 48.5068C29.096 46.8635 30.392 45.5698 32.056 44.6258C33.72 43.6468 35.64 43.1049 37.816 43C40.664 43 42.968 43.3671 44.728 44.1014C46.52 44.8356 48.12 45.7097 49.528 46.7236L46.888 52.5451Z" fill="#EEEEEE"/>
<circle cx="62.5" cy="62.5" r="58.5" stroke="url(#paint0_linear_94_3796)" stroke-width="8"/>
<defs>
<linearGradient id="paint0_linear_94_3796" x1="-8" y1="63" x2="136.5" y2="63" gradientUnits="userSpaceOnUse">
<stop stop-color="#39CCCC"/>
<stop offset="0.315" stop-color="#16435A"/>
<stop offset="0.68" stop-color="#16435A"/>
<stop offset="1" stop-color="#39CCCC"/>
</linearGradient>
</defs>
</svg>
