<svg width="180" height="90" viewBox="0 0 180 90" fill="none" xmlns="http://www.w3.org/2000/svg">
<g id="Group 261">
<g id="waves">
<g id="WAVES">
<path d="M0 49.7831H8.90515L17.1293 74.0129L15.9245 73.4884L26.6107 49.7831V66.0412L15.5054 89.9039L0 49.7831ZM26.6107 66.0412V49.7831L36.354 73.2262L34.992 73.0164L42.0637 49.7831H50.2355L35.3587 89.799L26.6107 66.0412Z" fill="url(#paint0_linear_94_3795)"/>
<path d="M47.2943 88.1207L64.6855 48H65.1046L82.4958 88.1207H73.6954L64.5551 64.6296L68.3877 55.574L54.7851 88.1207H47.2943Z" fill="url(#paint1_linear_94_3795)"/>
<path d="M88.1499 49.5209L99.4123 77.317L95.0121 76.4254L105.227 49.5209H114.237L96.636 89.9039L79.0352 49.5209H88.1499Z" fill="url(#paint2_linear_94_3795)"/>
<path d="M120.907 49.5209H147.203V56.8633H128.502V65.0972H145.055V72.4395H128.502V80.7784H147.936V88.1207H120.907V49.5209Z" fill="url(#paint3_linear_94_3795)"/>
<path d="M176.381 58.8562C174.915 58.052 173.413 57.3877 171.876 56.8633C170.375 56.3388 168.96 56.0766 167.633 56.0766C165.992 56.0766 164.7 56.4087 163.757 57.0731C162.814 57.7374 162.343 58.7338 162.343 60.0624C162.343 60.9715 162.692 61.7931 163.39 62.5274C164.124 63.2266 165.049 63.856 166.167 64.4154C167.319 64.9748 168.506 65.4818 169.729 65.9363C170.846 66.3559 171.946 66.8629 173.029 67.4572C174.146 68.0166 175.142 68.7334 176.015 69.6075C176.888 70.4466 177.586 71.513 178.11 72.8067C178.634 74.0653 178.896 75.6212 178.896 77.4743C178.896 79.4323 178.389 81.2504 177.377 82.9286C176.364 84.6069 174.88 85.9704 172.924 87.0194C170.968 88.0333 168.559 88.5403 165.695 88.5403C164.228 88.5403 162.727 88.4004 161.19 88.1207C159.689 87.806 158.204 87.3515 156.738 86.7571C155.271 86.1278 153.857 85.3411 152.495 84.3971L155.847 78.4708C156.755 79.1351 157.733 79.7294 158.781 80.2539C159.863 80.7434 160.946 81.128 162.028 81.4077C163.111 81.6874 164.106 81.8273 165.014 81.8273C165.922 81.8273 166.83 81.7049 167.738 81.4601C168.681 81.1804 169.449 80.7259 170.043 80.0966C170.672 79.4672 170.986 78.5931 170.986 77.4743C170.986 76.7051 170.724 76.0058 170.2 75.3765C169.711 74.7471 169.03 74.1702 168.157 73.6458C167.319 73.1213 166.394 72.6668 165.381 72.2822C164.193 71.8277 162.971 71.3032 161.714 70.7088C160.457 70.1145 159.269 69.3977 158.152 68.5586C157.069 67.6845 156.179 66.6181 155.48 65.3594C154.817 64.0658 154.485 62.4924 154.485 60.6393C154.485 58.4017 154.974 56.4612 155.952 54.8179C156.965 53.1746 158.379 51.881 160.195 50.9369C162.011 49.958 164.106 49.416 166.481 49.3111C169.589 49.3111 172.103 49.6783 174.024 50.4125C175.98 51.1467 177.726 52.0208 179.262 53.0348L176.381 58.8562Z" fill="url(#paint4_linear_94_3795)"/>
<path d="M16.5103 72.189L17.1293 74.0129L15.9245 73.4884L16.5103 72.189L26.6107 49.7831L35.5309 71.2459L36.354 73.2262L34.992 73.0164L35.5309 71.2459L26.6107 49.7831L16.5103 72.189Z" fill="url(#paint5_linear_94_3795)"/>
</g>
</g>
<g id="sound">
<g id="SOUND">
<path d="M21.888 10.8562C20.544 10.052 19.168 9.38772 17.76 8.86327C16.384 8.33882 15.088 8.07659 13.872 8.07659C12.368 8.07659 11.184 8.40874 10.32 9.07305C9.456 9.73736 9.024 10.7338 9.024 12.0624C9.024 12.9715 9.344 13.7931 9.984 14.5274C10.656 15.2266 11.504 15.856 12.528 16.4154C13.584 16.9748 14.672 17.4818 15.792 17.9363C16.816 18.3559 17.824 18.8629 18.816 19.4572C19.84 20.0166 20.752 20.7334 21.552 21.6075C22.352 22.4466 22.992 23.513 23.472 24.8067C23.952 26.0653 24.192 27.6212 24.192 29.4743C24.192 31.4323 23.728 33.2504 22.8 34.9286C21.872 36.6069 20.512 37.9704 18.72 39.0194C16.928 40.0333 14.72 40.5403 12.096 40.5403C10.752 40.5403 9.376 40.4004 7.968 40.1207C6.592 39.806 5.232 39.3515 3.888 38.7571C2.544 38.1278 1.248 37.3411 0 36.3971L3.072 30.4708C3.904 31.1351 4.8 31.7294 5.76 32.2539C6.752 32.7434 7.744 33.128 8.736 33.4077C9.728 33.6874 10.64 33.8273 11.472 33.8273C12.304 33.8273 13.136 33.7049 13.968 33.4601C14.832 33.1804 15.536 32.7259 16.08 32.0966C16.656 31.4672 16.944 30.5931 16.944 29.4743C16.944 28.7051 16.704 28.0058 16.224 27.3765C15.776 26.7471 15.152 26.1702 14.352 25.6458C13.584 25.1213 12.736 24.6668 11.808 24.2822C10.72 23.8277 9.6 23.3032 8.448 22.7088C7.296 22.1145 6.208 21.3977 5.184 20.5586C4.192 19.6845 3.376 18.6181 2.736 17.3594C2.128 16.0658 1.824 14.4924 1.824 12.6393C1.824 10.4017 2.272 8.46119 3.168 6.8179C4.096 5.17461 5.392 3.88096 7.056 2.93694C8.72 1.95796 10.64 1.41603 12.816 1.31114C15.664 1.31114 17.968 1.67825 19.728 2.41249C21.52 3.14672 23.12 4.02081 24.528 5.03476L21.888 10.8562Z" fill="#EEEEEE"/>
<path d="M28.8484 20.8733C28.8484 18.216 29.3124 15.6986 30.2404 13.3211C31.1684 10.9436 32.4484 8.84579 34.0804 7.02768C35.7444 5.17461 37.6644 3.72362 39.8404 2.67471C42.0164 1.62581 44.3524 1.10135 46.8484 1.10135C49.3124 1.10135 51.6324 1.62581 53.8084 2.67471C55.9844 3.72362 57.9044 5.17461 59.5684 7.02768C61.2644 8.84579 62.5764 10.9436 63.5044 13.3211C64.4644 15.6986 64.9444 18.216 64.9444 20.8733C64.9444 23.6004 64.4644 26.1528 63.5044 28.5303C62.5764 30.9078 61.2644 33.0056 59.5684 34.8237C57.9044 36.6069 55.9844 38.0054 53.8084 39.0194C51.6324 40.0333 49.3124 40.5403 46.8484 40.5403C44.3524 40.5403 42.0164 40.0333 39.8404 39.0194C37.6644 38.0054 35.7444 36.6069 34.0804 34.8237C32.4484 33.0056 31.1684 30.9078 30.2404 28.5303C29.3124 26.1528 28.8484 23.6004 28.8484 20.8733ZM36.0484 20.8733C36.0484 22.5865 36.3204 24.1948 36.8644 25.6982C37.4404 27.1667 38.2244 28.4778 39.2164 29.6316C40.2404 30.7505 41.4084 31.6246 42.7204 32.2539C44.0644 32.8832 45.5204 33.1979 47.0884 33.1979C48.5924 33.1979 49.9844 32.8832 51.2644 32.2539C52.5764 31.6246 53.7124 30.7505 54.6724 29.6316C55.6324 28.4778 56.3844 27.1667 56.9284 25.6982C57.4724 24.1948 57.7444 22.5865 57.7444 20.8733C57.7444 19.1251 57.4564 17.4993 56.8804 15.9958C56.3364 14.4924 55.5684 13.1813 54.5764 12.0624C53.6164 10.9086 52.4804 10.0171 51.1684 9.38772C49.8564 8.75838 48.4324 8.4437 46.8964 8.4437C45.3604 8.4437 43.9364 8.75838 42.6244 9.38772C41.3124 10.0171 40.1604 10.9086 39.1684 12.0624C38.1764 13.1813 37.4084 14.4924 36.8644 15.9958C36.3204 17.4993 36.0484 19.1251 36.0484 20.8733Z" fill="#EEEEEE"/>
<path d="M78.1234 25.8556C78.1234 27.0793 78.4594 28.2506 79.1314 29.3694C79.8034 30.4882 80.6834 31.3973 81.7714 32.0966C82.8914 32.7958 84.1074 33.1455 85.4194 33.1455C86.8594 33.1455 88.1394 32.7958 89.2594 32.0966C90.3794 31.3973 91.2594 30.4882 91.8994 29.3694C92.5714 28.2506 92.9074 27.0793 92.9074 25.8556V1.52091H99.7714V26.0129C99.7714 28.845 99.1314 31.3623 97.8514 33.565C96.5714 35.7328 94.8434 37.446 92.6674 38.7047C90.4914 39.9284 88.0754 40.5403 85.4194 40.5403C82.7954 40.5403 80.3954 39.9284 78.2194 38.7047C76.0754 37.446 74.3634 35.7328 73.0834 33.565C71.8034 31.3623 71.1634 28.845 71.1634 26.0129V1.52091H78.1234V25.8556Z" fill="#EEEEEE"/>
<path d="M139.797 41.6941L113.013 15.2616L115.077 16.5203L115.221 40.1207H108.165V0H108.453L134.661 26.3276L133.125 25.5933L132.981 1.52091H139.989V41.6941H139.797Z" fill="#EEEEEE"/>
<path d="M149.087 40.1207V1.52091H159.646C163.199 1.52091 166.223 2.09781 168.719 3.25161C171.215 4.40541 173.215 5.94381 174.719 7.86681C176.255 9.7898 177.375 11.9401 178.079 14.3176C178.783 16.6951 179.135 19.0901 179.135 21.5026C179.135 24.3696 178.655 26.9569 177.695 29.2645C176.767 31.5371 175.487 33.4951 173.855 35.1384C172.223 36.7467 170.335 37.9879 168.191 38.862C166.047 39.7011 163.774 40.1207 161.374 40.1207H149.087ZM156.046 32.7784H160.174C161.934 32.7784 163.535 32.5336 164.975 32.0441C166.415 31.5197 167.646 30.7679 168.671 29.789C169.727 28.81 170.526 27.5863 171.07 26.1178C171.646 24.6144 171.935 22.9011 171.935 20.9781C171.935 18.4608 171.551 16.4154 170.783 14.842C170.047 13.2337 169.118 11.9925 167.999 11.1184C166.911 10.2443 165.79 9.64995 164.639 9.33528C163.487 8.98564 162.51 8.81082 161.71 8.81082H156.046V32.7784Z" fill="#EEEEEE"/>
</g>
</g>
</g>
<defs>
<linearGradient id="paint0_linear_94_3795" x1="-1.67628" y1="75.0094" x2="181.665" y2="75.0094" gradientUnits="userSpaceOnUse">
<stop stop-color="#16435A"/>
<stop offset="0.302393" stop-color="#39CCCC"/>
<stop offset="0.599286" stop-color="#16435A"/>
<stop offset="0.998828" stop-color="#39CCCC"/>
</linearGradient>
<linearGradient id="paint1_linear_94_3795" x1="-1.67628" y1="75.0094" x2="181.665" y2="75.0094" gradientUnits="userSpaceOnUse">
<stop stop-color="#16435A"/>
<stop offset="0.302393" stop-color="#39CCCC"/>
<stop offset="0.599286" stop-color="#16435A"/>
<stop offset="0.998828" stop-color="#39CCCC"/>
</linearGradient>
<linearGradient id="paint2_linear_94_3795" x1="-1.67628" y1="75.0094" x2="181.665" y2="75.0094" gradientUnits="userSpaceOnUse">
<stop stop-color="#16435A"/>
<stop offset="0.302393" stop-color="#39CCCC"/>
<stop offset="0.599286" stop-color="#16435A"/>
<stop offset="0.998828" stop-color="#39CCCC"/>
</linearGradient>
<linearGradient id="paint3_linear_94_3795" x1="-1.67628" y1="75.0094" x2="181.665" y2="75.0094" gradientUnits="userSpaceOnUse">
<stop stop-color="#16435A"/>
<stop offset="0.302393" stop-color="#39CCCC"/>
<stop offset="0.599286" stop-color="#16435A"/>
<stop offset="0.998828" stop-color="#39CCCC"/>
</linearGradient>
<linearGradient id="paint4_linear_94_3795" x1="-1.67628" y1="75.0094" x2="181.665" y2="75.0094" gradientUnits="userSpaceOnUse">
<stop stop-color="#16435A"/>
<stop offset="0.302393" stop-color="#39CCCC"/>
<stop offset="0.599286" stop-color="#16435A"/>
<stop offset="0.998828" stop-color="#39CCCC"/>
</linearGradient>
<linearGradient id="paint5_linear_94_3795" x1="-1.67628" y1="75.0094" x2="181.665" y2="75.0094" gradientUnits="userSpaceOnUse">
<stop stop-color="#16435A"/>
<stop offset="0.302393" stop-color="#39CCCC"/>
<stop offset="0.599286" stop-color="#16435A"/>
<stop offset="0.998828" stop-color="#39CCCC"/>
</linearGradient>
</defs>
</svg>
